<svg width="407" height="341" viewBox="0 0 407 341" fill="none" xmlns="http://www.w3.org/2000/svg">
<g filter="url(#filter0_i_0_1)">
<path fill-rule="evenodd" clip-rule="evenodd" d="M196.64 23.6248C223.43 14.9257 249.177 -4.15223 276.896 0.811414C304.55 5.76347 333.001 24.1432 344.133 50.0364C355.7 76.941 331.657 107.289 335.177 136.378C338.23 161.6 360.354 180.99 363.041 206.254C366.139 235.391 371.125 270.393 351.761 292.318C332.132 314.542 296.4 311.122 267.058 314.928C243.469 317.988 220.395 313.648 196.64 312.44C173.98 311.288 150.607 316.484 129.575 307.937C108.159 299.233 93.8615 279.789 77.0767 263.85C58.1656 245.891 35.9061 230.925 24.0045 207.683C10.8856 182.063 -10.1642 148.396 5.6489 124.359C24.3503 95.9309 71.3859 108.557 100.608 91.2379C117.653 81.136 121.811 57.3174 138.016 45.9079C155.34 33.7101 176.507 30.1625 196.64 23.6248Z" fill="black"/>
</g>
<g filter="url(#filter1_ddi_0_1)">
<path d="M171.948 206C164.966 206 160.332 201.938 160.332 195.59C160.332 192.416 161.284 189.94 163.569 186.957L203.877 133.7V133.192H170.234C164.014 133.192 159.888 129.765 159.888 123.798C159.888 117.831 163.95 114.403 170.234 114.403H219.556C226.729 114.403 231.235 118.593 231.235 125.258C231.235 128.876 229.585 131.225 227.808 133.637L187.881 186.703V187.211H223.491C229.775 187.211 233.838 190.639 233.838 196.605C233.838 202.572 229.648 206 223.491 206H171.948ZM254.658 129.828C248.12 129.828 243.105 125.067 243.105 118.847C243.105 112.562 248.12 107.802 254.658 107.802C261.196 107.802 266.147 112.562 266.147 118.847C266.147 125.067 261.196 129.828 254.658 129.828ZM254.658 135.414C261.196 135.414 265.83 139.223 265.83 147.094V209.491C265.83 222.631 257.832 230.883 245.073 230.883H244.565C235.806 230.883 230.791 227.709 230.791 221.615C230.791 217.553 232.949 215.331 237.393 214.442L238.472 214.252C241.899 213.617 243.359 211.776 243.359 208.349V147.094C243.359 139.223 248.057 135.414 254.658 135.414Z" fill="white"/>
</g>
<defs>
<filter id="filter0_i_0_1" x="0" y="0" width="366" height="320" filterUnits="userSpaceOnUse" color-interpolation-filters="sRGB">
<feFlood flood-opacity="0" result="BackgroundImageFix"/>
<feBlend mode="normal" in="SourceGraphic" in2="BackgroundImageFix" result="shape"/>
<feColorMatrix in="SourceAlpha" type="matrix" values="0 0 0 0 0 0 0 0 0 0 0 0 0 0 0 0 0 0 127 0" result="hardAlpha"/>
<feOffset dy="4"/>
<feGaussianBlur stdDeviation="2"/>
<feComposite in2="hardAlpha" operator="arithmetic" k2="-1" k3="1"/>
<feColorMatrix type="matrix" values="0 0 0 0 1 0 0 0 0 1 0 0 0 0 1 0 0 0 0.25 0"/>
<feBlend mode="normal" in2="shape" result="effect1_innerShadow_0_1"/>
</filter>
<filter id="filter1_ddi_0_1" x="49.8877" y="27.8018" width="356.26" height="313.081" filterUnits="userSpaceOnUse" color-interpolation-filters="sRGB">
<feFlood flood-opacity="0" result="BackgroundImageFix"/>
<feColorMatrix in="SourceAlpha" type="matrix" values="0 0 0 0 0 0 0 0 0 0 0 0 0 0 0 0 0 0 127 0" result="hardAlpha"/>
<feOffset dx="-30"/>
<feGaussianBlur stdDeviation="40"/>
<feColorMatrix type="matrix" values="0 0 0 0 0.791667 0 0 0 0 0.323264 0 0 0 0 0.716388 0 0 0 1 0"/>
<feBlend mode="normal" in2="BackgroundImageFix" result="effect1_dropShadow_0_1"/>
<feColorMatrix in="SourceAlpha" type="matrix" values="0 0 0 0 0 0 0 0 0 0 0 0 0 0 0 0 0 0 127 0" result="hardAlpha"/>
<feOffset dx="50" dy="20"/>
<feGaussianBlur stdDeviation="45"/>
<feComposite in2="hardAlpha" operator="out"/>
<feColorMatrix type="matrix" values="0 0 0 0 0.250469 0 0 0 0 0.827501 0 0 0 0 0.954167 0 0 0 1 0"/>
<feBlend mode="normal" in2="effect1_dropShadow_0_1" result="effect2_dropShadow_0_1"/>
<feBlend mode="normal" in="SourceGraphic" in2="effect2_dropShadow_0_1" result="shape"/>
<feColorMatrix in="SourceAlpha" type="matrix" values="0 0 0 0 0 0 0 0 0 0 0 0 0 0 0 0 0 0 127 0" result="hardAlpha"/>
<feOffset dy="4"/>
<feGaussianBlur stdDeviation="2"/>
<feComposite in2="hardAlpha" operator="arithmetic" k2="-1" k3="1"/>
<feColorMatrix type="matrix" values="0 0 0 0 1 0 0 0 0 1 0 0 0 0 1 0 0 0 0.24 0"/>
<feBlend mode="normal" in2="shape" result="effect3_innerShadow_0_1"/>
</filter>
</defs>
</svg>
